<svg width="24" height="24" viewBox="0 0 24 24" fill="none" xmlns="http://www.w3.org/2000/svg" aria-hidden="true">
    <path d="M11 4H4C3.46957 4 2.96086 4.21071 2.58579 4.58579C2.21071 4.96086 2 5.46957 2 6V20C2 20.5304 2.21071 21.0391 2.58579 21.4142C2.96086 21.7893 3.46957 22 4 22H18C18.5304 22 19.0391 21.7893 19.4142 21.4142C19.7893 21.0391 20 20.5304 20 20V13" stroke="currentColor" stroke-width="2" stroke-linecap="round" stroke-linejoin="round"/>
    <path d="M18.375 2.62504C18.7728 2.22726 19.3124 2.00421 19.875 2.00421C20.4376 2.00421 20.9772 2.22726 21.375 2.62504C21.7728 3.02283 21.9958 3.56243 21.9958 4.12504C21.9958 4.68765 21.7728 5.22726 21.375 5.62504L12 15L8 16L9 12L18.375 2.62504Z" stroke="currentColor" stroke-width="2" stroke-linecap="round" stroke-linejoin="round"/>
  </svg>