<svg width="24" height="24" viewBox="0 0 201 201" fill="none" xmlns="http://www.w3.org/2000/svg"><path d="M100.583 0H100.128C45.0252 0 0.355713 44.6827 0.355713 99.8017V100.257C0.355713 155.376 45.0252 200.059 100.128 200.059H100.583C155.686 200.059 200.356 155.376 200.356 100.257V99.8017C200.356 44.6827 155.686 0 100.583 0Z" fill="#5865F2"/><path d="M150.403 54.1027C141.196 49.8762 131.33 46.7642 121.009 44.9839C120.82 44.9489 120.63 45.033 120.539 45.2082C119.271 47.4651 117.863 50.4159 116.882 52.7289C105.783 51.0677 94.7397 51.0677 83.8649 52.7289C82.8769 50.3598 81.4194 47.4651 80.1442 45.2082C80.0461 45.04 79.8569 44.9559 79.6747 44.9839C69.3605 46.7642 59.4877 49.8762 50.2805 54.1027C50.2034 54.1377 50.1334 54.1938 50.0843 54.2709C31.3617 82.2509 26.2324 109.544 28.7479 136.501C28.7619 136.634 28.832 136.76 28.9371 136.837C41.2904 145.914 53.2585 151.423 65.0022 155.075C65.1914 155.131 65.3875 155.061 65.5067 154.907C68.2814 151.115 70.7619 147.113 72.885 142.9C73.0111 142.655 72.8849 142.36 72.6327 142.262C68.7018 140.769 64.967 138.954 61.3654 136.893C61.0781 136.725 61.0572 136.319 61.3165 136.122C62.0733 135.555 62.83 134.966 63.5517 134.37C63.6848 134.258 63.8669 134.237 64.0211 134.307C87.6556 145.101 113.245 145.101 136.599 134.307C136.754 134.23 136.936 134.258 137.069 134.363C137.791 134.959 138.547 135.555 139.311 136.122C139.57 136.319 139.556 136.725 139.269 136.893C135.675 138.996 131.933 140.776 127.995 142.262C127.736 142.36 127.623 142.655 127.749 142.907C129.922 147.106 132.395 151.108 135.121 154.907C135.233 155.068 135.436 155.138 135.625 155.082C147.425 151.43 159.393 145.921 171.746 136.844C171.851 136.767 171.921 136.641 171.936 136.515C174.949 105.353 166.891 78.2838 150.585 54.2849C150.543 54.2078 150.48 54.1447 150.396 54.1097L150.403 54.1027ZM76.4024 120.086C69.2833 120.086 63.4256 113.553 63.4256 105.528C63.4256 97.5026 69.1782 90.9702 76.4024 90.9702C83.6266 90.9702 89.4984 97.5657 89.3793 105.528C89.3793 113.553 83.6266 120.086 76.4024 120.086ZM124.393 120.086C117.274 120.086 111.416 113.553 111.416 105.528C111.416 97.5026 117.169 90.9702 124.393 90.9702C131.617 90.9702 137.489 97.5657 137.37 105.528C137.37 113.553 131.68 120.086 124.393 120.086Z" fill="white"/></svg>
