<svg width="24" height="24" viewBox="0 0 120 120" fill="none" xmlns="http://www.w3.org/2000/svg"><path fill-rule="evenodd" clip-rule="evenodd" d="M91.4062 0C108.75 0 120 11.25 120 28.5938V91.4062C120 108.75 108.75 120 91.4062 120H28.5938C11.25 120 0 108.75 0 91.4062V28.5938C0 11.25 11.25 0 28.5938 0H91.4062Z" fill="white"/><path d="M99.751 45.3704L90.2272 50.6085L80.7034 59.6561V90.7037H94.0368C97.193 90.7037 99.751 88.1456 99.751 84.9894V45.3704Z" fill="#4CAF50"/><path d="M19.751 45.3704L26.6348 48.6275L38.7987 59.6561V90.7037H25.4653C22.3091 90.7037 19.751 88.1456 19.751 84.9894V45.3704Z" fill="#1E88E5"/><path d="M80.7034 35.8467L59.751 51.561L38.7986 35.8467L36.8939 46.8943L38.7986 59.6562L59.751 75.3705L80.7034 59.6562L82.6081 46.8943L80.7034 35.8467Z" fill="#E53935"/><path d="M19.751 37.9376V45.37L38.7987 59.6557V35.8462L32.8482 31.3872C31.431 30.3243 29.7091 29.751 27.9377 29.751C23.4158 29.751 19.751 33.4157 19.751 37.9376Z" fill="#C62828"/><path d="M99.751 37.9376V45.37L80.7034 59.6557V35.8462L86.6539 31.3872C88.0711 30.3243 89.793 29.751 91.5644 29.751C96.0863 29.751 99.751 33.4157 99.751 37.9376Z" fill="#FBC02D"/></svg>