<svg fill="currentColor" fill-rule="evenodd" width="24" height="24" viewBox="0 0 128 128" xmlns="http://www.w3.org/2000/svg"><path d="M64.192 10.667C43.643 10.48 26.667 26.667 26.475 46.165C26.288 65.675 42.587 81.632 63.109 81.813H76.053V68.128H63.808C50.971 68.277 40.427 58.176 40.277 45.547C40.123 32.949 50.405 22.624 63.243 22.475H63.776C76.613 22.475 87.019 32.693 87.061 45.291V78.933C87.061 91.424 76.693 101.6 64 101.755C57.92 101.829 52.16 99.456 47.829 94.944L37.957 104.64C45.163 112.021 54.293 117.333 64.155 117.333H64.64C84.923 117.035 101.205 100.885 101.333 80.981V46.315C100.837 26.469 84.357 10.667 64.192 10.667Z"/>
</svg>