<svg fill="currentColor" fill-rule="evenodd" width="24" height="24" viewBox="0 0 128 128" xmlns="http://www.w3.org/2000/svg"><path d="M89.621 10.437L128 32.32v0.464l-38.779 21.659.091-11.291-4.368-.16c-5.632-.149-8.571.011-12.064.587-5.664.933-10.848 3.077-16.757 7.211L44.613 58.827c-1.515 1.04-2.64 1.792-3.627 2.427l-2.741 1.717-2.112 1.248 2.048 1.227 2.821 1.803c2.533 1.675 6.229 4.245 14.379 9.952 5.909 4.133 11.093 6.277 16.757 7.211l1.6 0.24c3.696 0.485 7.323 0.501 15.04 0.176l0.117-11.515L128 95.2v0.464L88.478 117.333l0.075-9.931-3.381 0.117c-7.376 0.224-11.371 0.011-16.704-.864-9.035-1.493-17.387-4.939-26.031-10.981l-11.509-8a117.323 117.323 0 00-4.027-2.656l-2.491-1.493c-1.349-0.779-2.699-1.541-4.053-2.293C15.509 78.56 3.003 75.285 0 75.285V52.715l0.747 0.021c3.008-0.037 15.52-3.317 20.309-5.995l5.419-3.093 2.336-1.461c2.283-1.493 5.717-3.872 14.325-9.883 8.645-6.043 16.992-9.488 26.027-10.981 6.144-1.013 10.528-1.136 20.341-0.736l0.117-10.17z"/>
</svg>